<svg width="126" height="23" fill="none" xmlns="http://www.w3.org/2000/svg"><path d="M18.244 22h-4.526v-9.243H5.236V22H.696V.584h4.54v8.394h8.482V.584h4.526V22zm24.858-10.737c0 3.545-.878 6.27-2.636 8.173-1.758 1.905-4.278 2.857-7.559 2.857-3.281 0-5.8-.952-7.558-2.857-1.758-1.904-2.637-4.638-2.637-8.203 0-3.564.879-6.284 2.637-8.159C27.116 1.19 29.645.247 32.937.247c3.29 0 5.805.947 7.544 2.842 1.747 1.894 2.621 4.619 2.621 8.174zm-15.63 0c0 2.392.455 4.194 1.363 5.405.908 1.21 2.266 1.816 4.072 1.816 3.623 0 5.435-2.407 5.435-7.221 0-4.825-1.802-7.237-5.405-7.237-1.807 0-3.17.61-4.087 1.831-.918 1.211-1.377 3.013-1.377 5.406zM55.803 22h-4.54V4.363h-5.816V.584h16.172v3.78h-5.815V22z" fill="#F9AB00"/><path d="M69.382 22h-4.468V.584H77.19v3.72h-7.807v5.523h7.265v3.706h-7.265V22zm11.997 0V.584h4.54V18.25h8.687V22H81.38zm16.963 0V.584h4.541V22h-4.541zm27.246 0h-5.186l-4.98-8.1-4.981 8.1h-4.863l7.105-11.045L106.032.584h5.01l4.614 7.705 4.527-7.705h4.892l-6.723 10.62L125.588 22z" fill="#fff"/></svg>